<svg width="61" height="61" viewBox="0 0 61 61" fill="none" xmlns="http://www.w3.org/2000/svg">
<path d="M59.3809 33.4125C58.5888 40.4504 55.2142 46.9517 49.9018 51.6742C44.5895 56.3966 37.7119 59.0091 30.5832 59.0125C27.8569 59.0165 25.1444 58.6285 22.5301 57.8605L26.2667 48.9005C27.7002 49.2498 29.1716 49.4218 30.6476 49.4125C35.2117 49.4079 39.6268 47.7989 43.1112 44.8705C46.5956 41.942 48.9243 37.8831 49.685 33.4125H59.3809ZM27.3619 11.3005C23.4977 11.9475 19.9227 13.7462 17.1111 16.458C14.2995 19.1697 12.3841 22.6665 11.6189 26.4845C10.8538 30.3025 11.275 34.2614 12.8267 37.8361C14.3784 41.4108 16.9873 44.4325 20.3075 46.5005L16.5386 55.4605C11.1417 52.5081 6.83191 47.9244 4.23448 42.3743C1.63705 36.8242 0.887057 30.5964 2.09329 24.5943C3.29952 18.5922 6.39924 13.1279 10.9428 8.99407C15.4864 4.86025 21.2375 2.27191 27.3619 1.60449V11.3005Z" fill="#DD9D21"/>
<path d="M59.3812 27.0132H49.7175C49.0403 23.0751 47.1434 19.445 44.291 16.6286C41.4386 13.8122 37.7729 11.9499 33.8047 11.3012V1.70117C40.321 2.4252 46.3979 5.3223 51.0431 9.91952C55.6884 14.5167 58.6277 20.5425 59.3812 27.0132V27.0132Z" fill="#F9CC29"/>
</svg>
