<svg width="37" height="38" viewBox="0 0 37 38" fill="none" xmlns="http://www.w3.org/2000/svg">
<g clip-path="url(#clip0_1020_1956)">
<path d="M18.7541 27.7844C18.3621 27.7813 18.0151 27.6361 17.7132 27.3488L16.8418 26.4757C16.5475 26.1807 16.3987 25.8292 16.3955 25.421C16.3922 25.0052 16.5355 24.6598 16.8254 24.3848L20.1764 21.0151L12.0608 20.9514C11.6611 20.9483 11.3353 20.8014 11.0832 20.5106C10.8312 20.2198 10.7036 19.8704 10.7004 19.4622L10.6888 17.9836C10.6856 17.5754 10.8077 17.228 11.0552 16.9411C11.3028 16.6543 11.6263 16.5124 12.026 16.5156L20.1416 16.5792L16.7373 13.1565C16.4431 12.877 16.2943 12.5293 16.2911 12.1134C16.2878 11.6976 16.4311 11.3522 16.721 11.0772L17.5788 10.2176C17.8685 9.92728 18.2132 9.78367 18.6129 9.7868C19.0202 9.79 19.371 9.93906 19.6654 10.234L27.229 17.813C27.5155 18.0848 27.6604 18.4325 27.6637 18.856C27.667 19.2719 27.5276 19.6212 27.2454 19.9039L19.7997 27.3652C19.5023 27.6478 19.1537 27.7875 18.7541 27.7844Z" fill="#E3AAFF"/>
</g>
<defs>
<clipPath id="clip0_1020_1956">
<rect width="26" height="25" fill="white" transform="translate(18.6152 0.968781) rotate(45)"/>
</clipPath>
</defs>
</svg>
