<svg width="43" height="42" viewBox="0 0 43 42" fill="none" xmlns="http://www.w3.org/2000/svg">
<g clip-path="url(#clip0_901_4415)">
<path d="M31.5217 31.6902C31.0598 32.1522 30.4842 32.3918 29.7951 32.4093L27.755 32.4072C27.0659 32.4065 26.4808 32.1656 25.9997 31.6845C25.5096 31.1944 25.2732 30.6138 25.2907 29.9428L25.2688 21.959L15.7035 31.5243C15.2325 31.9953 14.6796 32.2078 14.0449 32.1618C13.4101 32.1158 12.8522 31.8523 12.3711 31.3712L10.6284 29.6285C10.1473 29.1474 9.88378 28.5895 9.83779 27.9548C9.7918 27.32 10.0043 26.7671 10.4753 26.2961L20.0406 16.7308L12.0568 16.709C11.3858 16.7264 10.8053 16.4901 10.3151 15.9999C9.82498 15.5098 9.58863 14.9292 9.60607 14.2583L9.60397 12.2181C9.60326 11.529 9.83842 10.9489 10.3094 10.4779C10.7895 9.99781 11.3741 9.75813 12.0632 9.75884L29.7718 9.77707C30.4247 9.75961 31.0007 10.0005 31.4999 10.4997C31.9901 10.9899 32.2355 11.5704 32.2362 12.2414L32.2544 29.95C32.237 30.6391 31.9928 31.2192 31.5217 31.6902Z" fill="#E3AAFF"/>
</g>
<defs>
<clipPath id="clip0_901_4415">
<rect width="43" height="42" fill="white"/>
</clipPath>
</defs>
</svg>
