<svg width="64" height="63" viewBox="0 0 64 63" fill="none" xmlns="http://www.w3.org/2000/svg">
<path d="M28.1732 28.1995C27.5992 28.1995 27.0485 28.4206 26.6426 28.8142C26.2368 29.2077 26.0088 29.7415 26.0088 30.298C26.0088 30.8545 26.2369 31.3883 26.6427 31.7818C27.0486 32.1753 27.5991 32.3964 28.1731 32.3964C28.747 32.3964 29.2975 32.1753 29.7034 31.7818C30.1093 31.3883 30.3373 30.8545 30.3373 30.298C30.3373 29.7415 30.1093 29.2077 29.7035 28.8142C29.2976 28.4206 28.7472 28.1995 28.1732 28.1995ZM35.8903 28.1995C35.4177 28.1607 34.944 28.2611 34.5312 28.4876C34.1184 28.7142 33.7858 29.0563 33.5769 29.4692C33.368 29.8821 33.2925 30.3465 33.3603 30.8017C33.4282 31.2569 33.6362 31.6816 33.9571 32.0202C34.2781 32.3588 34.697 32.5956 35.159 32.6996C35.6211 32.8036 36.1047 32.7698 36.5467 32.6028C36.9886 32.4358 37.3683 32.1433 37.6359 31.7637C37.9036 31.384 38.0467 30.9348 38.0467 30.4749C38.0593 30.1882 38.0136 29.9018 37.912 29.6323C37.8105 29.3627 37.6551 29.1152 37.4548 28.9039C37.2546 28.6926 37.0133 28.5216 36.7449 28.4007C36.4764 28.2799 36.186 28.2115 35.8903 28.1995ZM46.1656 11H17.8344C17.2638 11.0013 16.6991 11.1116 16.1725 11.3245C15.6458 11.5375 15.1676 11.8489 14.7651 12.2411C14.3626 12.6332 14.0437 13.0984 13.8267 13.61C13.6096 14.1217 13.4986 14.6698 13.5 15.223V42.939C13.4986 43.4923 13.6096 44.0404 13.8267 44.552C14.0438 45.0636 14.3627 45.5288 14.7652 45.9209C15.1677 46.3131 15.6459 46.6245 16.1725 46.8375C16.6991 47.0504 17.2639 47.1607 17.8344 47.162H41.8103L40.6897 43.3694L43.3959 45.8089L45.9543 48.1049L50.5 52V15.223C50.5014 14.6698 50.3904 14.1217 50.1733 13.61C49.9563 13.0984 49.6374 12.6332 49.2349 12.2411C48.8324 11.8489 48.3542 11.5375 47.8275 11.3245C47.3009 11.1116 46.7362 11.0013 46.1656 11ZM38.0046 37.773C38.0046 37.773 37.2433 36.8915 36.6089 36.1125C38.1415 35.7626 39.4971 34.8985 40.436 33.673C39.6753 34.164 38.8596 34.5697 38.0046 34.8824C37.021 35.2895 35.9923 35.5853 34.9388 35.764C33.1281 36.0872 31.271 36.0803 29.4629 35.7435C28.4014 35.5421 27.361 35.247 26.3547 34.8621C25.8244 34.6643 25.3087 34.4314 24.8113 34.165C24.7478 34.1239 24.6846 34.1035 24.6211 34.0625C24.5893 34.0472 24.5607 34.0264 24.5366 34.0011C24.1562 33.7961 23.9444 33.6525 23.9444 33.6525C24.8493 34.8523 26.1581 35.7079 27.6445 36.0715C27.0104 36.8506 26.228 37.773 26.228 37.773C24.9721 37.8058 23.7272 37.5387 22.6027 36.9954C21.4782 36.452 20.5087 35.649 19.7796 34.657C19.8482 30.501 20.8892 26.4145 22.824 22.7054C24.5267 21.4088 26.6026 20.6567 28.7651 20.5529L28.9764 20.799C26.9419 21.2871 25.0434 22.204 23.416 23.4845C23.416 23.4845 23.8812 23.2385 24.6634 22.89C26.1832 22.2173 27.803 21.7814 29.4631 21.5986C29.5815 21.5747 29.7018 21.5609 29.8226 21.5575C31.2394 21.3785 32.6732 21.3648 34.0933 21.5166C36.3267 21.7638 38.4887 22.4324 40.4573 23.4845C38.9124 22.2651 37.1181 21.3777 35.1931 20.881L35.4889 20.5531C37.6514 20.6568 39.7273 21.4089 41.43 22.7056C43.3649 26.4146 44.406 30.5011 44.4747 34.6571C43.7396 35.6481 42.7658 36.4501 41.6382 36.9931C40.5106 37.5362 39.2632 37.8039 38.0046 37.773Z" fill="white"/>
</svg>
