<svg width="35" height="36" viewBox="0 0 35 36" fill="none" xmlns="http://www.w3.org/2000/svg">
<path d="M15.5499 15.1272C15.3276 14.9049 15.0262 14.7801 14.7119 14.7801C14.3976 14.7801 14.0962 14.9049 13.874 15.1272C13.6517 15.3494 13.5269 15.6508 13.5269 15.9651C13.5269 16.2794 13.6517 16.5809 13.874 16.8031L17.4146 20.3438C17.5249 20.4532 17.6557 20.5397 17.7995 20.5985C17.9433 20.6572 18.0973 20.687 18.2526 20.6861C18.4142 20.6809 18.573 20.6427 18.7192 20.5737C18.8653 20.5046 18.9958 20.4063 19.1024 20.2848L27.364 10.8429C27.5548 10.6061 27.6467 10.3048 27.6208 10.0018C27.5948 9.69876 27.4528 9.41748 27.2245 9.21658C26.9962 9.01568 26.6992 8.91065 26.3954 8.9234C26.0915 8.93615 25.8043 9.0657 25.5937 9.28502L18.2526 17.7827L15.5499 15.1272Z" fill="#00FF66"/>
<path d="M28.8747 14.7849C28.5617 14.7849 28.2615 14.9093 28.0402 15.1306C27.8188 15.352 27.6945 15.6522 27.6945 15.9652C27.6945 18.4693 26.6997 20.8709 24.929 22.6416C23.1583 24.4123 20.7568 25.407 18.2526 25.407C16.388 25.4062 14.5653 24.8532 13.0145 23.8179C11.4636 22.7826 10.2541 21.3112 9.53835 19.5894C8.8226 17.8676 8.63271 15.9724 8.99262 14.1428C9.35252 12.3132 10.2461 10.6311 11.5607 9.30866C12.4349 8.42275 13.477 7.72011 14.6261 7.24185C15.7751 6.76358 17.008 6.51931 18.2526 6.52331C19.0073 6.52803 19.7592 6.6151 20.4951 6.78296C20.649 6.83059 20.8111 6.84617 20.9714 6.82875C21.1316 6.81133 21.2866 6.76127 21.4267 6.68167C21.5669 6.60206 21.6892 6.49459 21.7863 6.36589C21.8833 6.23719 21.9529 6.08997 21.9909 5.93332C22.0288 5.77668 22.0343 5.61392 22.0069 5.45508C21.9796 5.29624 21.92 5.14469 21.8318 5.00977C21.7436 4.87485 21.6287 4.75942 21.4942 4.67059C21.3597 4.58177 21.2085 4.52143 21.0498 4.49331C20.1329 4.27761 19.1945 4.16675 18.2526 4.16284C15.9209 4.17496 13.645 4.8775 11.7121 6.18181C9.77926 7.48612 8.27608 9.33375 7.39226 11.4915C6.50844 13.6493 6.28359 16.0205 6.7461 18.306C7.2086 20.5914 8.33773 22.6887 9.99099 24.333C12.1823 26.5253 15.1529 27.7603 18.2526 27.7675C21.3828 27.7675 24.3848 26.524 26.5981 24.3107C28.8115 22.0973 30.0549 19.0953 30.0549 15.9652C30.0549 15.6522 29.9306 15.352 29.7093 15.1306C29.4879 14.9093 29.1877 14.7849 28.8747 14.7849Z" fill="#00FF66"/>
</svg>
