<svg width="35" height="36" viewBox="0 0 35 36" fill="none" xmlns="http://www.w3.org/2000/svg">
<path d="M15.5499 15.1272C15.3276 14.9049 15.0262 14.7801 14.7119 14.7801C14.3976 14.7801 14.0962 14.9049 13.874 15.1272C13.6517 15.3494 13.5269 15.6508 13.5269 15.9651C13.5269 16.2794 13.6517 16.5809 13.874 16.8031L17.4146 20.3438C17.5249 20.4532 17.6557 20.5397 17.7995 20.5985C17.9433 20.6572 18.0973 20.687 18.2526 20.6861C18.4142 20.6809 18.573 20.6427 18.7192 20.5737C18.8653 20.5046 18.9958 20.4063 19.1024 20.2848L27.364 10.8429C27.5548 10.6061 27.6467 10.3048 27.6208 10.0018C27.5948 9.69876 27.4528 9.41748 27.2245 9.21658C26.9962 9.01568 26.6992 8.91065 26.3954 8.9234C26.0915 8.93615 25.8043 9.0657 25.5937 9.28502L18.2526 17.7827L15.5499 15.1272Z" fill="#E3AAFF"/>
<path d="M28.8748 14.7847C28.5618 14.7847 28.2616 14.909 28.0403 15.1304C27.8189 15.3517 27.6946 15.6519 27.6946 15.9649C27.6946 18.4691 26.6998 20.8706 24.9291 22.6413C23.1585 24.412 20.7569 25.4068 18.2527 25.4068C16.3881 25.4059 14.5654 24.853 13.0146 23.8176C11.4638 22.7823 10.2542 21.311 9.53847 19.5891C8.82272 17.8673 8.63283 15.9721 8.99274 14.1425C9.35264 12.3129 10.2462 10.6308 11.5608 9.30841C12.435 8.42251 13.4771 7.71987 14.6262 7.2416C15.7752 6.76334 17.0081 6.51906 18.2527 6.52306C19.0074 6.52779 19.7594 6.61485 20.4952 6.78271C20.6492 6.83034 20.8113 6.84593 20.9715 6.82851C21.1317 6.81109 21.2867 6.76103 21.4269 6.68142C21.567 6.60182 21.6894 6.49435 21.7864 6.36565C21.8834 6.23694 21.953 6.08973 21.991 5.93308C22.0289 5.77643 22.0344 5.61367 22.007 5.45483C21.9797 5.29599 21.9201 5.14444 21.8319 5.00952C21.7437 4.8746 21.6288 4.75917 21.4944 4.67035C21.3599 4.58152 21.2086 4.52119 21.0499 4.49306C20.133 4.27737 19.1946 4.1665 18.2527 4.1626C15.921 4.17471 13.6451 4.87725 11.7122 6.18157C9.77938 7.48588 8.2762 9.33351 7.39238 11.4913C6.50856 13.6491 6.28371 16.0203 6.74622 18.3057C7.20872 20.5912 8.33785 22.6884 9.99111 24.3328C12.1824 26.5251 15.153 27.76 18.2527 27.7673C21.3829 27.7673 24.3849 26.5238 26.5982 24.3104C28.8116 22.0971 30.0551 19.0951 30.0551 15.9649C30.0551 15.6519 29.9307 15.3517 29.7094 15.1304C29.488 14.909 29.1878 14.7847 28.8748 14.7847Z" fill="#E3AAFF"/>
</svg>
