<svg width="64" height="63" viewBox="0 0 64 63" fill="none" xmlns="http://www.w3.org/2000/svg">
<path d="M49.55 35.4C49.0328 35.4 48.5368 35.6054 48.1711 35.9711C47.8054 36.3368 47.6 36.8328 47.6 37.35V45.15C47.6 45.6672 47.3946 46.1632 47.0289 46.5289C46.6632 46.8946 46.1672 47.1 45.65 47.1H18.35C17.8328 47.1 17.3368 46.8946 16.9711 46.5289C16.6054 46.1632 16.4 45.6672 16.4 45.15V37.35C16.4 36.8328 16.1946 36.3368 15.8289 35.9711C15.4632 35.6054 14.9672 35.4 14.45 35.4C13.9328 35.4 13.4368 35.6054 13.0711 35.9711C12.7054 36.3368 12.5 36.8328 12.5 37.35V45.15C12.5 46.7015 13.1163 48.1895 14.2134 49.2866C15.3105 50.3837 16.7985 51 18.35 51H45.65C47.2015 51 48.6895 50.3837 49.7866 49.2866C50.8837 48.1895 51.5 46.7015 51.5 45.15V37.35C51.5 36.8328 51.2946 36.3368 50.9289 35.9711C50.5632 35.6054 50.0672 35.4 49.55 35.4ZM30.6155 38.7345C30.801 38.912 31.0196 39.0512 31.259 39.144C31.4924 39.2472 31.7448 39.3005 32 39.3005C32.2552 39.3005 32.5076 39.2472 32.741 39.144C32.9804 39.0512 33.199 38.912 33.3845 38.7345L41.1845 30.9345C41.5517 30.5673 41.758 30.0693 41.758 29.55C41.758 29.0307 41.5517 28.5327 41.1845 28.1655C40.8173 27.7983 40.3193 27.592 39.8 27.592C39.2807 27.592 38.7827 27.7983 38.4155 28.1655L33.95 32.6505V13.95C33.95 13.4328 33.7446 12.9368 33.3789 12.5711C33.0132 12.2054 32.5172 12 32 12C31.4828 12 30.9868 12.2054 30.6211 12.5711C30.2554 12.9368 30.05 13.4328 30.05 13.95V32.6505L25.5845 28.1655C25.4027 27.9837 25.1868 27.8395 24.9493 27.7411C24.7117 27.6427 24.4571 27.592 24.2 27.592C23.9429 27.592 23.6883 27.6427 23.4507 27.7411C23.2132 27.8395 22.9973 27.9837 22.8155 28.1655C22.6337 28.3473 22.4895 28.5632 22.3911 28.8007C22.2927 29.0383 22.242 29.2929 22.242 29.55C22.242 29.8071 22.2927 30.0617 22.3911 30.2993C22.4895 30.5368 22.6337 30.7527 22.8155 30.9345L30.6155 38.7345Z" fill="white"/>
</svg>
