<svg width="31" height="30" viewBox="0 0 31 30" fill="none" xmlns="http://www.w3.org/2000/svg">
<path d="M17.6786 23.3673V11.1905H12.3214V23.3673C12.3214 23.6508 12.4219 23.869 12.6228 24.0221C12.8237 24.1752 13.0804 24.2517 13.3929 24.2517H16.6071C16.9196 24.2517 17.1763 24.1752 17.3772 24.0221C17.5781 23.869 17.6786 23.6508 17.6786 23.3673ZM10.0446 9.0136H13.3091L11.1998 6.27551C10.9096 5.92403 10.5245 5.7483 10.0446 5.7483C9.59821 5.7483 9.21875 5.90703 8.90625 6.22449C8.59375 6.54195 8.4375 6.92744 8.4375 7.38095C8.4375 7.83447 8.59375 8.21995 8.90625 8.53741C9.21875 8.85487 9.59821 9.0136 10.0446 9.0136ZM21.5625 7.38095C21.5625 6.92744 21.4062 6.54195 21.0937 6.22449C20.7812 5.90703 20.4018 5.7483 19.9554 5.7483C19.4754 5.7483 19.0904 5.92403 18.8002 6.27551L16.7076 9.0136H19.9554C20.4018 9.0136 20.7812 8.85487 21.0937 8.53741C21.4062 8.21995 21.5625 7.83447 21.5625 7.38095ZM27.8571 11.7347V17.1769C27.8571 17.3356 27.8069 17.466 27.7065 17.568C27.606 17.6701 27.4777 17.7211 27.3214 17.7211H25.7143V24.7959C25.7143 25.2494 25.558 25.6349 25.2455 25.9524C24.933 26.2698 24.5536 26.4286 24.1071 26.4286H5.89285C5.44642 26.4286 5.06696 26.2698 4.75446 25.9524C4.44196 25.6349 4.28571 25.2494 4.28571 24.7959V17.7211H2.67857C2.52232 17.7211 2.39397 17.6701 2.29352 17.568C2.19308 17.466 2.14285 17.3356 2.14285 17.1769V11.7347C2.14285 11.576 2.19308 11.4456 2.29352 11.3435C2.39397 11.2415 2.52232 11.1905 2.67857 11.1905H10.0446C9.00669 11.1905 8.12221 10.8192 7.39118 10.0765C6.66015 9.3339 6.29464 8.43537 6.29464 7.38095C6.29464 6.32653 6.66015 5.428 7.39118 4.68537C8.12221 3.94274 9.00669 3.57143 10.0446 3.57143C11.2388 3.57143 12.1763 4.00793 12.8571 4.88095L15 7.68707L17.1429 4.88095C17.8237 4.00793 18.7612 3.57143 19.9554 3.57143C20.9933 3.57143 21.8778 3.94274 22.6088 4.68537C23.3398 5.428 23.7054 6.32653 23.7054 7.38095C23.7054 8.43537 23.3398 9.3339 22.6088 10.0765C21.8778 10.8192 20.9933 11.1905 19.9554 11.1905H27.3214C27.4777 11.1905 27.606 11.2415 27.7065 11.3435C27.8069 11.4456 27.8571 11.576 27.8571 11.7347Z" fill="#E3AAFF"/>
</svg>
