<svg width="44" height="42" viewBox="0 0 44 42" fill="none" xmlns="http://www.w3.org/2000/svg">
<path d="M35.15 16.8059C35.1517 14.3345 34.4089 11.9172 33.0142 9.85497C31.6195 7.79273 29.6345 6.17667 27.3063 5.20798C24.978 4.23929 22.4094 3.96077 19.9203 4.40709C17.4312 4.85342 15.1315 6.00487 13.3075 7.7181C11.4835 9.43132 10.2159 11.6306 9.66234 14.0422C9.10882 16.4538 9.29389 18.9711 10.1945 21.2807C11.0951 23.5903 12.6715 25.5902 14.7274 27.0314C16.7833 28.4726 19.2279 29.2914 21.7568 29.3859C21.9226 29.4 22.0878 29.4 22.2536 29.4C22.4194 29.4 22.5846 29.4 22.7504 29.3859C25.1272 29.3054 27.4336 28.5774 29.4088 27.2839C31.1762 26.135 32.6252 24.5772 33.6269 22.749C34.6286 20.9209 35.1518 18.8793 35.15 16.8059ZM22.2536 27.0973C20.1686 27.0973 18.1304 26.4935 16.3968 25.3622C14.6633 24.231 13.3121 22.6231 12.5144 20.7419C11.7166 18.8607 11.508 16.7907 11.915 14.7938C12.322 12.7968 13.3262 10.9625 14.8007 9.52298C16.2753 8.08342 18.1538 7.10321 20.1989 6.70632C22.2439 6.30944 24.3635 6.5137 26.2896 7.29328C28.2157 8.07285 29.8619 9.39273 31.0198 11.086C32.1778 12.7792 32.7955 14.7698 32.795 16.8059C32.7912 19.5347 31.6792 22.1506 29.7031 24.0799C27.7269 26.0092 25.0479 27.0943 22.2536 27.0973Z" fill="#FFC700"/>
<path d="M22.2536 7.56006C20.394 7.56006 18.5761 8.09637 17.0299 9.10116C15.4837 10.106 14.2786 11.5341 13.5669 13.205C12.8553 14.8759 12.6691 16.7146 13.0319 18.4884C13.3947 20.2622 14.2902 21.8916 15.6051 23.1705C16.9201 24.4493 18.5954 25.3202 20.4193 25.6731C22.2432 26.0259 24.1337 25.8448 25.8517 25.1527C27.5698 24.4606 29.0382 23.2885 30.0714 21.7848C31.1045 20.281 31.656 18.513 31.656 16.7044C31.6524 14.2803 30.6606 11.9564 28.8981 10.2423C27.1356 8.52813 24.7462 7.56358 22.2536 7.56006ZM28.3694 15.1738L24.6881 17.7657C24.6787 17.7723 24.6717 17.7816 24.6681 17.7923C24.6644 17.803 24.6644 17.8145 24.6679 17.8252L26.0653 22.024C26.0688 22.0347 26.0689 22.0463 26.0653 22.057C26.0617 22.0677 26.0548 22.077 26.0454 22.0836C26.036 22.0902 26.0248 22.0938 26.0132 22.0938C26.0016 22.0938 25.9903 22.0902 25.981 22.0836L22.2983 19.4917C22.2889 19.4853 22.2777 19.4818 22.2662 19.4818C22.2547 19.4818 22.2435 19.4853 22.2342 19.4917L18.5543 22.0836C18.545 22.0904 18.5337 22.0942 18.5221 22.0943C18.5104 22.0944 18.4991 22.0908 18.4897 22.0841C18.4803 22.0774 18.4734 22.068 18.47 22.0571C18.4665 22.0463 18.4668 22.0347 18.4708 22.024L19.9113 17.8266C19.9151 17.816 19.9153 17.8044 19.9118 17.7937C19.9083 17.7829 19.9013 17.7736 19.8918 17.7671L16.2098 15.1752C16.2006 15.1686 16.1938 15.1592 16.1903 15.1486C16.1868 15.1379 16.1869 15.1265 16.1905 15.1159C16.1941 15.1053 16.201 15.096 16.2103 15.0894C16.2196 15.0829 16.2308 15.0793 16.2422 15.0793H20.741C20.7526 15.0793 20.7639 15.0757 20.7733 15.069C20.7826 15.0623 20.7895 15.0529 20.7929 15.0421L22.2147 10.8307C22.2184 10.8202 22.2253 10.811 22.2347 10.8045C22.244 10.798 22.2551 10.7945 22.2666 10.7945C22.278 10.7945 22.2892 10.798 22.2985 10.8045C22.3078 10.811 22.3148 10.8202 22.3184 10.8307L23.7366 15.04C23.7403 15.0508 23.7473 15.0602 23.7567 15.0669C23.7662 15.0735 23.7775 15.0771 23.7892 15.0772H28.3377C28.3493 15.0771 28.3606 15.0807 28.37 15.0874C28.3794 15.0941 28.3864 15.1035 28.3899 15.1142C28.3934 15.125 28.3933 15.1366 28.3897 15.1473C28.386 15.158 28.3789 15.1673 28.3694 15.1738ZM23.334 30.2858L27.4698 37.8001L27.8076 37.1206L29.2885 34.1525L33.43 34.5182L29.9345 28.1002C27.9626 29.3654 25.6901 30.1179 23.334 30.2858ZM11.07 34.5182L15.2187 34.1525L16.6996 37.1206L17.0374 37.8001L21.1732 30.2858C18.8172 30.1092 16.545 29.3574 14.5669 28.1002L11.07 34.5182Z" fill="#FFC700"/>
</svg>
