<svg width="44" height="42" viewBox="0 0 44 42" fill="none" xmlns="http://www.w3.org/2000/svg">
<path d="M28.0116 8.37086V10.435H15.4884V8.37086C15.4884 7.75927 16.0363 7.22412 16.6625 7.22412C16.7407 7.22412 26.9158 7.22412 26.9158 7.22412C27.4637 7.22412 28.0116 7.75927 28.0116 8.37086ZM13.923 14.5633V17.7741H1.39987V15.71C1.39987 15.0984 1.94776 14.5633 2.57392 14.5633H13.923ZM42.1001 18.6151V20.6792H29.577V17.4683H40.9261C41.5522 17.5448 42.1001 18.0035 42.1001 18.6151ZM15.4884 11.964V34.4401H28.0116V11.964H15.4884ZM23.7067 24.043H19.7932V22.8198H21.2021V18.8444L19.7932 19.5325V18.1564L21.4369 17.3154H22.5327V22.8198H23.7067V24.043ZM1.39987 19.3031V34.4401H13.923V19.3031H1.39987ZM9.61819 26.26V27.3303H5.62643V26.7187C5.62643 26.4129 5.7047 26.1836 5.86124 25.8778C6.01778 25.6484 6.25259 25.4191 6.4874 25.2662C6.72221 25.1133 6.95702 24.9604 7.19183 24.731C7.42664 24.5781 7.66145 24.4252 7.89626 24.2723C8.13106 24.1194 8.2876 23.9666 8.36587 23.8137C8.44414 23.6608 8.52241 23.5079 8.52241 23.4314C8.52241 23.1256 8.44414 22.7434 7.58318 22.7434C7.03529 22.7434 6.56567 22.8963 6.09605 23.1256H6.01778H5.86124V22.8963V22.1318L6.01778 22.0553C6.56567 21.7495 7.19183 21.5966 7.89626 21.5966C8.44414 21.5966 8.91376 21.7495 9.30511 22.0553C9.69646 22.3611 9.853 22.8198 9.853 23.2785C9.853 23.5843 9.77473 23.8137 9.61819 24.043C9.46165 24.2723 9.30511 24.5017 9.0703 24.6546C8.83549 24.8075 8.67895 24.9604 8.36587 25.1897C8.05279 25.4955 7.81798 25.6484 7.58318 25.8013C7.2701 25.9542 7.11356 26.1071 6.95702 26.26H9.61819ZM29.577 22.2847V34.4401H42.1001V22.2847H29.577ZM37.0908 28.4771C36.7778 28.7829 36.2299 28.8593 35.682 28.8593C35.1341 28.8593 34.5862 28.7829 34.1166 28.5535L33.9601 28.4771V27.4832H34.2731H34.3514C34.7428 27.7126 35.1341 27.789 35.6037 27.789C36.0733 27.789 36.4647 27.7126 36.543 27.4832C36.6212 27.4068 36.6212 27.3303 36.6212 27.2539C36.6212 27.101 36.6212 26.6423 35.3689 26.6423H34.7428V25.6484H35.2124C35.6037 25.6484 35.9168 25.572 36.1516 25.4955C36.3081 25.4191 36.3864 25.2662 36.3864 25.1133C36.3864 24.9604 36.3081 24.8839 36.2299 24.8075C36.0733 24.731 35.8385 24.6546 35.5254 24.6546C35.0558 24.6546 34.6645 24.731 34.3514 24.9604V25.0368H34.0383V24.8075V24.1194L34.1949 24.043C34.6645 23.8137 35.2124 23.6608 35.7603 23.6608C36.3081 23.6608 36.7778 23.8137 37.0908 24.043C37.4822 24.2723 37.6387 24.6546 37.6387 25.1133C37.6387 25.572 37.4822 25.9542 37.1691 26.1836C37.6387 26.4129 37.8735 26.8716 37.8735 27.4068C37.717 27.8655 37.4822 28.2477 37.0908 28.4771Z" fill="#E3AAFF"/>
</svg>
