<svg width="43" height="42" viewBox="0 0 43 42" fill="none" xmlns="http://www.w3.org/2000/svg">
<path d="M34.4 16.806C34.4017 14.3346 33.6589 11.9173 32.2642 9.85503C30.8695 7.79279 28.8845 6.17673 26.5562 5.20804C24.228 4.23935 21.6594 3.96083 19.1703 4.40715C16.6812 4.85348 14.3815 6.00493 12.5575 7.71816C10.7335 9.43138 9.46584 11.6307 8.91231 14.0423C8.35879 16.4538 8.54387 18.9711 9.4445 21.2807C10.3451 23.5903 11.9215 25.5902 13.9774 27.0314C16.0333 28.4726 18.4779 29.2914 21.0068 29.3859C21.1726 29.4 21.3377 29.4 21.5036 29.4C21.6694 29.4 21.8346 29.4 22.0004 29.3859C24.3772 29.3055 26.6835 28.5774 28.6588 27.284C30.4262 26.1351 31.8752 24.5772 32.8769 22.7491C33.8786 20.921 34.4018 18.8793 34.4 16.806ZM21.5036 27.0974C19.4186 27.0974 17.3804 26.4936 15.6468 25.3623C13.9132 24.231 12.5621 22.6231 11.7643 20.7419C10.9666 18.8607 10.758 16.7908 11.165 14.7938C11.5719 12.7969 12.5762 10.9626 14.0507 9.52304C15.5253 8.08348 17.4038 7.10327 19.4488 6.70639C21.4938 6.3095 23.6135 6.51376 25.5396 7.29334C27.4657 8.07292 29.1119 9.39279 30.2698 11.086C31.4278 12.7793 32.0455 14.7698 32.0449 16.806C32.0411 19.5348 30.9292 22.1507 28.9531 24.08C26.9769 26.0093 24.2979 27.0944 21.5036 27.0974Z" fill="#FFC700"/>
<path d="M21.5035 7.56C19.6439 7.56 17.8261 8.09631 16.2799 9.1011C14.7337 10.1059 13.5285 11.5341 12.8169 13.205C12.1052 14.8759 11.919 16.7145 12.2818 18.4883C12.6446 20.2622 13.5401 21.8915 14.8551 23.1704C16.17 24.4493 17.8454 25.3202 19.6692 25.673C21.4931 26.0259 23.3836 25.8448 25.1017 25.1526C26.8197 24.4605 28.2882 23.2885 29.3213 21.7847C30.3545 20.2809 30.9059 18.5129 30.9059 16.7044C30.9023 14.2802 29.9105 11.9563 28.148 10.2422C26.3855 8.52807 23.9961 7.56352 21.5035 7.56ZM27.6193 15.1738L23.9381 17.7656C23.9286 17.7722 23.9216 17.7815 23.918 17.7922C23.9144 17.8029 23.9143 17.8144 23.9179 17.8252L25.3152 22.024C25.3188 22.0347 25.3188 22.0462 25.3152 22.0569C25.3117 22.0676 25.3047 22.0769 25.2953 22.0836C25.286 22.0902 25.2747 22.0937 25.2631 22.0937C25.2516 22.0937 25.2403 22.0901 25.2309 22.0835L21.5482 19.4917C21.5388 19.4852 21.5276 19.4817 21.5162 19.4817C21.5047 19.4817 21.4935 19.4852 21.4841 19.4917L17.8043 22.0835C17.795 22.0904 17.7837 22.0941 17.772 22.0942C17.7604 22.0943 17.749 22.0908 17.7396 22.0841C17.7302 22.0774 17.7233 22.0679 17.7199 22.0571C17.7165 22.0463 17.7168 22.0346 17.7207 22.024L19.1612 17.8266C19.1651 17.8159 19.1653 17.8044 19.1618 17.7936C19.1583 17.7829 19.1512 17.7735 19.1418 17.767L15.4598 15.1752C15.4506 15.1685 15.4437 15.1592 15.4403 15.1485C15.4368 15.1379 15.4368 15.1264 15.4404 15.1158C15.444 15.1052 15.4509 15.096 15.4602 15.0894C15.4695 15.0828 15.4807 15.0792 15.4922 15.0792H19.991C20.0026 15.0792 20.0139 15.0757 20.0232 15.069C20.0326 15.0623 20.0394 15.0528 20.0428 15.0421L21.4647 10.8306C21.4683 10.8201 21.4753 10.8109 21.4846 10.8044C21.4939 10.7979 21.5051 10.7945 21.5165 10.7945C21.528 10.7945 21.5391 10.7979 21.5484 10.8044C21.5577 10.8109 21.5647 10.8201 21.5684 10.8306L22.9866 15.04C22.9902 15.0507 22.9973 15.0601 23.0067 15.0668C23.0161 15.0735 23.0275 15.0771 23.0392 15.0771H27.5877C27.5993 15.0771 27.6106 15.0807 27.62 15.0873C27.6294 15.094 27.6363 15.1034 27.6398 15.1142C27.6434 15.1249 27.6433 15.1365 27.6396 15.1472C27.6359 15.1579 27.6288 15.1672 27.6193 15.1738ZM22.584 30.2857L26.7197 37.8L27.0575 37.1205L28.5384 34.1525L32.6799 34.5181L29.1845 28.1001C27.2126 29.3654 24.94 30.1178 22.584 30.2857ZM10.3199 34.5181L14.4687 34.1525L15.9496 37.1205L16.2874 37.8L20.4231 30.2857C18.0671 30.1091 15.7949 29.3574 13.8168 28.1001L10.3199 34.5181Z" fill="#FFC700"/>
</svg>
