<svg width="64" height="63" viewBox="0 0 64 63" fill="none" xmlns="http://www.w3.org/2000/svg">
<path d="M50.5 18.8338C49.0718 19.4747 47.5615 19.8984 46.016 20.0917C47.6465 19.0841 48.8684 17.4988 49.455 15.6301C47.9227 16.5737 46.2454 17.2385 44.496 17.5956C43.3266 16.2838 41.7694 15.4106 40.0686 15.1129C38.3678 14.8153 36.6196 15.11 35.0982 15.9509C33.5768 16.7917 32.3682 18.1312 31.662 19.7592C30.9557 21.3872 30.7919 23.2116 31.196 24.9464C28.0979 24.7843 25.0674 23.9498 22.3014 22.4971C19.5354 21.0445 17.0958 19.0062 15.141 16.5146C14.4554 17.7531 14.0951 19.1558 14.096 20.5831C14.0936 21.9085 14.408 23.2141 15.0113 24.3834C15.6147 25.5527 16.4881 26.5496 17.554 27.2853C16.3152 27.2504 15.1028 26.9065 14.02 26.2829V26.3812C14.0293 28.2383 14.6584 30.0351 15.8009 31.4677C16.9434 32.9003 18.5292 33.8806 20.29 34.243C19.6122 34.4564 18.9085 34.5689 18.2 34.5771C17.7096 34.5712 17.2204 34.5252 16.737 34.4395C17.2384 36.0371 18.2088 37.4332 19.513 38.4336C20.8173 39.4341 22.3906 39.9891 24.014 40.0214C21.2727 42.2527 17.8882 43.4705 14.4 43.4806C13.7649 43.4828 13.1303 43.4434 12.5 43.3627C16.0614 45.7414 20.2117 47.0041 24.451 46.9988C27.3764 47.0302 30.2786 46.4583 32.9879 45.3165C35.6973 44.1747 38.1595 42.4859 40.2309 40.3487C42.3022 38.2114 43.9411 35.6687 45.0519 32.8689C46.1626 30.0692 46.7229 27.0685 46.7 24.0423C46.7 23.7081 46.7 23.3544 46.7 23.0006C48.1909 21.8504 49.4768 20.4404 50.5 18.8338Z" fill="white"/>
</svg>
